<mxfile host="app.diagrams.net" agent="Mozilla/5.0 (Windows NT 10.0; Win64; x64) AppleWebKit/537.36 (KHTML, like Gecko) Chrome/131.0.0.0 Safari/537.36" version="24.8.6">
  <diagram name="Page-1" id="Ft7DhXImj_OzW7c_C0M6">
    <mxGraphModel dx="1434" dy="780" grid="1" gridSize="10" guides="1" tooltips="1" connect="1" arrows="1" fold="1" page="1" pageScale="1" pageWidth="1169" pageHeight="1654" math="0" shadow="0">
      <root>
        <mxCell id="0" />
        <mxCell id="1" parent="0" />
        <mxCell id="P5cqmYQWpr9F72onbuW7-4" value="Content delivery network" style="rounded=0;whiteSpace=wrap;html=1;labelPosition=center;verticalLabelPosition=bottom;align=center;verticalAlign=top;dashed=1;fillColor=#dae8fc;strokeColor=#6c8ebf;" vertex="1" parent="1">
          <mxGeometry x="110" y="40" width="1010" height="610" as="geometry" />
        </mxCell>
        <mxCell id="P5cqmYQWpr9F72onbuW7-36" value="Region A" style="rounded=0;whiteSpace=wrap;html=1;fillColor=#fff2cc;strokeColor=#d6b656;labelPosition=center;verticalLabelPosition=bottom;align=center;verticalAlign=top;" vertex="1" parent="1">
          <mxGeometry x="190" y="350" width="370" height="260" as="geometry" />
        </mxCell>
        <mxCell id="P5cqmYQWpr9F72onbuW7-6" value="Region A" style="rounded=0;whiteSpace=wrap;html=1;fillColor=#fff2cc;strokeColor=#d6b656;labelPosition=center;verticalLabelPosition=bottom;align=center;verticalAlign=top;" vertex="1" parent="1">
          <mxGeometry x="190" y="60" width="370" height="260" as="geometry" />
        </mxCell>
        <mxCell id="P5cqmYQWpr9F72onbuW7-9" value="Region C" style="rounded=0;whiteSpace=wrap;html=1;fillColor=#fff2cc;strokeColor=#d6b656;labelPosition=center;verticalLabelPosition=bottom;align=center;verticalAlign=top;" vertex="1" parent="1">
          <mxGeometry x="740" y="245" width="340" height="220" as="geometry" />
        </mxCell>
        <mxCell id="P5cqmYQWpr9F72onbuW7-45" style="edgeStyle=orthogonalEdgeStyle;rounded=0;orthogonalLoop=1;jettySize=auto;html=1;entryX=0;entryY=0.5;entryDx=0;entryDy=0;" edge="1" parent="1" source="P5cqmYQWpr9F72onbuW7-1" target="P5cqmYQWpr9F72onbuW7-27">
          <mxGeometry relative="1" as="geometry" />
        </mxCell>
        <mxCell id="P5cqmYQWpr9F72onbuW7-46" value="Websocket" style="edgeLabel;html=1;align=center;verticalAlign=middle;resizable=0;points=[];labelBackgroundColor=none;" vertex="1" connectable="0" parent="P5cqmYQWpr9F72onbuW7-45">
          <mxGeometry x="0.0331" y="1" relative="1" as="geometry">
            <mxPoint x="-8" y="-9" as="offset" />
          </mxGeometry>
        </mxCell>
        <mxCell id="P5cqmYQWpr9F72onbuW7-1" value="Client&lt;div&gt;(Spectator)&lt;/div&gt;" style="sketch=0;outlineConnect=0;fontColor=#232F3E;gradientColor=none;fillColor=#232F3D;strokeColor=none;dashed=0;verticalLabelPosition=bottom;verticalAlign=top;align=center;html=1;fontSize=12;fontStyle=0;aspect=fixed;pointerEvents=1;shape=mxgraph.aws4.client;" vertex="1" parent="1">
          <mxGeometry x="10" y="70" width="82.11" height="80" as="geometry" />
        </mxCell>
        <mxCell id="P5cqmYQWpr9F72onbuW7-16" style="edgeStyle=orthogonalEdgeStyle;rounded=0;orthogonalLoop=1;jettySize=auto;html=1;entryX=1;entryY=0.5;entryDx=0;entryDy=0;" edge="1" parent="1" source="P5cqmYQWpr9F72onbuW7-2" target="P5cqmYQWpr9F72onbuW7-11">
          <mxGeometry relative="1" as="geometry" />
        </mxCell>
        <mxCell id="P5cqmYQWpr9F72onbuW7-17" value="Websocket" style="edgeLabel;html=1;align=center;verticalAlign=middle;resizable=0;points=[];labelBackgroundColor=none;" vertex="1" connectable="0" parent="P5cqmYQWpr9F72onbuW7-16">
          <mxGeometry x="-0.2547" y="-2" relative="1" as="geometry">
            <mxPoint x="31" y="-8" as="offset" />
          </mxGeometry>
        </mxCell>
        <mxCell id="P5cqmYQWpr9F72onbuW7-2" value="HLS Encoder&lt;div&gt;(Publisher)&lt;/div&gt;" style="image;aspect=fixed;perimeter=ellipsePerimeter;html=1;align=center;shadow=0;dashed=0;spacingTop=3;image=img/lib/active_directory/generic_server.svg;" vertex="1" parent="1">
          <mxGeometry x="1024.8" y="680" width="44.8" height="80" as="geometry" />
        </mxCell>
        <mxCell id="P5cqmYQWpr9F72onbuW7-44" style="edgeStyle=orthogonalEdgeStyle;rounded=0;orthogonalLoop=1;jettySize=auto;html=1;entryX=0;entryY=0.5;entryDx=0;entryDy=0;" edge="1" parent="1" source="P5cqmYQWpr9F72onbuW7-5" target="P5cqmYQWpr9F72onbuW7-39">
          <mxGeometry relative="1" as="geometry" />
        </mxCell>
        <mxCell id="P5cqmYQWpr9F72onbuW7-47" value="Websocket" style="edgeLabel;html=1;align=center;verticalAlign=middle;resizable=0;points=[];labelBackgroundColor=none;" vertex="1" connectable="0" parent="P5cqmYQWpr9F72onbuW7-44">
          <mxGeometry x="-0.0449" y="1" relative="1" as="geometry">
            <mxPoint y="-9" as="offset" />
          </mxGeometry>
        </mxCell>
        <mxCell id="P5cqmYQWpr9F72onbuW7-5" value="Client&lt;div&gt;(Spectator)&lt;/div&gt;" style="sketch=0;outlineConnect=0;fontColor=#232F3E;gradientColor=none;fillColor=#232F3D;strokeColor=none;dashed=0;verticalLabelPosition=bottom;verticalAlign=top;align=center;html=1;fontSize=12;fontStyle=0;aspect=fixed;pointerEvents=1;shape=mxgraph.aws4.client;" vertex="1" parent="1">
          <mxGeometry x="10" y="360" width="82.11" height="80" as="geometry" />
        </mxCell>
        <mxCell id="P5cqmYQWpr9F72onbuW7-10" value="Redis&lt;div&gt;(Publish registry)&lt;/div&gt;" style="outlineConnect=0;dashed=0;verticalLabelPosition=bottom;verticalAlign=top;align=center;html=1;shape=mxgraph.aws3.redis;fillColor=#2E73B8;gradientColor=none;" vertex="1" parent="1">
          <mxGeometry x="620" y="345" width="60" height="63" as="geometry" />
        </mxCell>
        <mxCell id="P5cqmYQWpr9F72onbuW7-11" value="CDN Server" style="image;aspect=fixed;perimeter=ellipsePerimeter;html=1;align=center;shadow=0;dashed=0;spacingTop=3;image=img/lib/active_directory/web_server.svg;labelBackgroundColor=none;labelPosition=center;verticalLabelPosition=bottom;verticalAlign=top;" vertex="1" parent="1">
          <mxGeometry x="960.8" y="310" width="64" height="80" as="geometry" />
        </mxCell>
        <mxCell id="P5cqmYQWpr9F72onbuW7-20" style="edgeStyle=orthogonalEdgeStyle;rounded=0;orthogonalLoop=1;jettySize=auto;html=1;" edge="1" parent="1" source="P5cqmYQWpr9F72onbuW7-13" target="P5cqmYQWpr9F72onbuW7-10">
          <mxGeometry relative="1" as="geometry">
            <Array as="points">
              <mxPoint x="822" y="275" />
              <mxPoint x="720" y="275" />
              <mxPoint x="720" y="377" />
            </Array>
          </mxGeometry>
        </mxCell>
        <mxCell id="P5cqmYQWpr9F72onbuW7-25" value="TCP (Redis protocol)" style="edgeLabel;html=1;align=center;verticalAlign=middle;resizable=0;points=[];labelBackgroundColor=none;" vertex="1" connectable="0" parent="P5cqmYQWpr9F72onbuW7-20">
          <mxGeometry x="-0.4015" y="2" relative="1" as="geometry">
            <mxPoint x="30" y="-12" as="offset" />
          </mxGeometry>
        </mxCell>
        <mxCell id="P5cqmYQWpr9F72onbuW7-13" value="CDN Server" style="image;aspect=fixed;perimeter=ellipsePerimeter;html=1;align=center;shadow=0;dashed=0;spacingTop=3;image=img/lib/active_directory/web_server.svg;labelBackgroundColor=none;" vertex="1" parent="1">
          <mxGeometry x="790" y="305" width="64" height="80" as="geometry" />
        </mxCell>
        <mxCell id="P5cqmYQWpr9F72onbuW7-14" value="&lt;font style=&quot;font-size: 32px;&quot;&gt;...&lt;/font&gt;" style="text;html=1;align=center;verticalAlign=middle;whiteSpace=wrap;rounded=0;" vertex="1" parent="1">
          <mxGeometry x="870" y="335" width="60" height="30" as="geometry" />
        </mxCell>
        <mxCell id="P5cqmYQWpr9F72onbuW7-21" style="edgeStyle=orthogonalEdgeStyle;rounded=0;orthogonalLoop=1;jettySize=auto;html=1;entryX=0.5;entryY=0;entryDx=0;entryDy=0;entryPerimeter=0;" edge="1" parent="1" source="P5cqmYQWpr9F72onbuW7-11" target="P5cqmYQWpr9F72onbuW7-10">
          <mxGeometry relative="1" as="geometry">
            <Array as="points">
              <mxPoint x="993" y="225" />
              <mxPoint x="650" y="225" />
            </Array>
          </mxGeometry>
        </mxCell>
        <mxCell id="P5cqmYQWpr9F72onbuW7-24" value="TCP (Redis protocol)" style="edgeLabel;html=1;align=center;verticalAlign=middle;resizable=0;points=[];labelBackgroundColor=none;" vertex="1" connectable="0" parent="P5cqmYQWpr9F72onbuW7-21">
          <mxGeometry x="-0.1829" y="1" relative="1" as="geometry">
            <mxPoint x="-44" y="-11" as="offset" />
          </mxGeometry>
        </mxCell>
        <mxCell id="P5cqmYQWpr9F72onbuW7-55" style="edgeStyle=orthogonalEdgeStyle;rounded=0;orthogonalLoop=1;jettySize=auto;html=1;entryX=0;entryY=0.5;entryDx=0;entryDy=0;" edge="1" parent="1" source="P5cqmYQWpr9F72onbuW7-37" target="P5cqmYQWpr9F72onbuW7-11">
          <mxGeometry relative="1" as="geometry">
            <Array as="points">
              <mxPoint x="482" y="580" />
              <mxPoint x="940" y="580" />
              <mxPoint x="940" y="350" />
            </Array>
          </mxGeometry>
        </mxCell>
        <mxCell id="P5cqmYQWpr9F72onbuW7-56" value="Websocket" style="edgeLabel;html=1;align=center;verticalAlign=middle;resizable=0;points=[];labelBackgroundColor=none;" vertex="1" connectable="0" parent="P5cqmYQWpr9F72onbuW7-55">
          <mxGeometry x="-0.1882" y="-3" relative="1" as="geometry">
            <mxPoint x="-10" y="-13" as="offset" />
          </mxGeometry>
        </mxCell>
        <mxCell id="P5cqmYQWpr9F72onbuW7-37" value="CDN Server" style="image;aspect=fixed;perimeter=ellipsePerimeter;html=1;align=center;shadow=0;dashed=0;spacingTop=3;image=img/lib/active_directory/web_server.svg;labelBackgroundColor=none;labelPosition=center;verticalLabelPosition=top;verticalAlign=bottom;" vertex="1" parent="1">
          <mxGeometry x="450" y="450" width="64" height="80" as="geometry" />
        </mxCell>
        <mxCell id="P5cqmYQWpr9F72onbuW7-38" style="edgeStyle=orthogonalEdgeStyle;rounded=0;orthogonalLoop=1;jettySize=auto;html=1;entryX=0;entryY=0.5;entryDx=0;entryDy=0;" edge="1" parent="1" source="P5cqmYQWpr9F72onbuW7-39" target="P5cqmYQWpr9F72onbuW7-37">
          <mxGeometry relative="1" as="geometry" />
        </mxCell>
        <mxCell id="P5cqmYQWpr9F72onbuW7-39" value="CDN Server" style="image;aspect=fixed;perimeter=ellipsePerimeter;html=1;align=center;shadow=0;dashed=0;spacingTop=3;image=img/lib/active_directory/web_server.svg;labelBackgroundColor=none;" vertex="1" parent="1">
          <mxGeometry x="220" y="360" width="64" height="80" as="geometry" />
        </mxCell>
        <mxCell id="P5cqmYQWpr9F72onbuW7-40" style="edgeStyle=orthogonalEdgeStyle;rounded=0;orthogonalLoop=1;jettySize=auto;html=1;" edge="1" parent="1" source="P5cqmYQWpr9F72onbuW7-42" target="P5cqmYQWpr9F72onbuW7-37">
          <mxGeometry relative="1" as="geometry" />
        </mxCell>
        <mxCell id="P5cqmYQWpr9F72onbuW7-41" value="Websocket" style="edgeLabel;html=1;align=center;verticalAlign=middle;resizable=0;points=[];labelBackgroundColor=none;" vertex="1" connectable="0" parent="P5cqmYQWpr9F72onbuW7-40">
          <mxGeometry x="0.5278" y="-2" relative="1" as="geometry">
            <mxPoint x="1" y="-12" as="offset" />
          </mxGeometry>
        </mxCell>
        <mxCell id="P5cqmYQWpr9F72onbuW7-42" value="CDN Server" style="image;aspect=fixed;perimeter=ellipsePerimeter;html=1;align=center;shadow=0;dashed=0;spacingTop=3;image=img/lib/active_directory/web_server.svg;labelBackgroundColor=none;" vertex="1" parent="1">
          <mxGeometry x="220" y="500" width="64" height="80" as="geometry" />
        </mxCell>
        <mxCell id="P5cqmYQWpr9F72onbuW7-43" value="&lt;font style=&quot;font-size: 32px;&quot;&gt;...&lt;/font&gt;" style="text;html=1;align=center;verticalAlign=middle;whiteSpace=wrap;rounded=0;" vertex="1" parent="1">
          <mxGeometry x="220" y="460" width="60" height="30" as="geometry" />
        </mxCell>
        <mxCell id="P5cqmYQWpr9F72onbuW7-53" style="edgeStyle=orthogonalEdgeStyle;rounded=0;orthogonalLoop=1;jettySize=auto;html=1;entryX=0.5;entryY=0;entryDx=0;entryDy=0;" edge="1" parent="1" source="P5cqmYQWpr9F72onbuW7-26" target="P5cqmYQWpr9F72onbuW7-11">
          <mxGeometry relative="1" as="geometry">
            <Array as="points">
              <mxPoint x="482" y="90" />
              <mxPoint x="993" y="90" />
            </Array>
          </mxGeometry>
        </mxCell>
        <mxCell id="P5cqmYQWpr9F72onbuW7-54" value="Websocket" style="edgeLabel;html=1;align=center;verticalAlign=middle;resizable=0;points=[];labelBackgroundColor=none;" vertex="1" connectable="0" parent="P5cqmYQWpr9F72onbuW7-53">
          <mxGeometry x="-0.1408" y="-2" relative="1" as="geometry">
            <mxPoint y="-12" as="offset" />
          </mxGeometry>
        </mxCell>
        <mxCell id="P5cqmYQWpr9F72onbuW7-26" value="CDN Server" style="image;aspect=fixed;perimeter=ellipsePerimeter;html=1;align=center;shadow=0;dashed=0;spacingTop=3;image=img/lib/active_directory/web_server.svg;labelBackgroundColor=none;" vertex="1" parent="1">
          <mxGeometry x="450" y="160" width="64" height="80" as="geometry" />
        </mxCell>
        <mxCell id="P5cqmYQWpr9F72onbuW7-30" style="edgeStyle=orthogonalEdgeStyle;rounded=0;orthogonalLoop=1;jettySize=auto;html=1;entryX=0;entryY=0.5;entryDx=0;entryDy=0;" edge="1" parent="1" source="P5cqmYQWpr9F72onbuW7-27" target="P5cqmYQWpr9F72onbuW7-26">
          <mxGeometry relative="1" as="geometry" />
        </mxCell>
        <mxCell id="P5cqmYQWpr9F72onbuW7-27" value="CDN Server" style="image;aspect=fixed;perimeter=ellipsePerimeter;html=1;align=center;shadow=0;dashed=0;spacingTop=3;image=img/lib/active_directory/web_server.svg;labelBackgroundColor=none;" vertex="1" parent="1">
          <mxGeometry x="220" y="70" width="64" height="80" as="geometry" />
        </mxCell>
        <mxCell id="P5cqmYQWpr9F72onbuW7-31" style="edgeStyle=orthogonalEdgeStyle;rounded=0;orthogonalLoop=1;jettySize=auto;html=1;" edge="1" parent="1" source="P5cqmYQWpr9F72onbuW7-28" target="P5cqmYQWpr9F72onbuW7-26">
          <mxGeometry relative="1" as="geometry" />
        </mxCell>
        <mxCell id="P5cqmYQWpr9F72onbuW7-32" value="Websocket" style="edgeLabel;html=1;align=center;verticalAlign=middle;resizable=0;points=[];labelBackgroundColor=none;" vertex="1" connectable="0" parent="P5cqmYQWpr9F72onbuW7-31">
          <mxGeometry x="0.5278" y="-2" relative="1" as="geometry">
            <mxPoint x="1" y="-12" as="offset" />
          </mxGeometry>
        </mxCell>
        <mxCell id="P5cqmYQWpr9F72onbuW7-28" value="CDN Server" style="image;aspect=fixed;perimeter=ellipsePerimeter;html=1;align=center;shadow=0;dashed=0;spacingTop=3;image=img/lib/active_directory/web_server.svg;labelBackgroundColor=none;" vertex="1" parent="1">
          <mxGeometry x="220" y="210" width="64" height="80" as="geometry" />
        </mxCell>
        <mxCell id="P5cqmYQWpr9F72onbuW7-29" value="&lt;font style=&quot;font-size: 32px;&quot;&gt;...&lt;/font&gt;" style="text;html=1;align=center;verticalAlign=middle;whiteSpace=wrap;rounded=0;" vertex="1" parent="1">
          <mxGeometry x="220" y="170" width="60" height="30" as="geometry" />
        </mxCell>
        <mxCell id="P5cqmYQWpr9F72onbuW7-49" style="edgeStyle=orthogonalEdgeStyle;rounded=0;orthogonalLoop=1;jettySize=auto;html=1;entryX=0;entryY=0.5;entryDx=0;entryDy=0;entryPerimeter=0;" edge="1" parent="1" source="P5cqmYQWpr9F72onbuW7-37" target="P5cqmYQWpr9F72onbuW7-10">
          <mxGeometry relative="1" as="geometry">
            <Array as="points">
              <mxPoint x="580" y="490" />
              <mxPoint x="580" y="377" />
            </Array>
          </mxGeometry>
        </mxCell>
        <mxCell id="P5cqmYQWpr9F72onbuW7-50" value="TCP (Redis protocol)" style="edgeLabel;html=1;align=center;verticalAlign=middle;resizable=0;points=[];labelBackgroundColor=none;" vertex="1" connectable="0" parent="P5cqmYQWpr9F72onbuW7-49">
          <mxGeometry x="-0.3166" relative="1" as="geometry">
            <mxPoint x="60" y="-1" as="offset" />
          </mxGeometry>
        </mxCell>
        <mxCell id="P5cqmYQWpr9F72onbuW7-51" style="edgeStyle=orthogonalEdgeStyle;rounded=0;orthogonalLoop=1;jettySize=auto;html=1;entryX=0;entryY=0.5;entryDx=0;entryDy=0;entryPerimeter=0;" edge="1" parent="1" source="P5cqmYQWpr9F72onbuW7-26" target="P5cqmYQWpr9F72onbuW7-10">
          <mxGeometry relative="1" as="geometry">
            <Array as="points">
              <mxPoint x="580" y="200" />
              <mxPoint x="580" y="377" />
            </Array>
          </mxGeometry>
        </mxCell>
        <mxCell id="P5cqmYQWpr9F72onbuW7-52" value="TCP (Redis protocol)" style="edgeLabel;html=1;align=center;verticalAlign=middle;resizable=0;points=[];labelBackgroundColor=none;" vertex="1" connectable="0" parent="P5cqmYQWpr9F72onbuW7-51">
          <mxGeometry x="-0.4265" y="3" relative="1" as="geometry">
            <mxPoint x="37" y="-25" as="offset" />
          </mxGeometry>
        </mxCell>
      </root>
    </mxGraphModel>
  </diagram>
</mxfile>
